<svg id="visual" viewBox="0 0 960 540" width="960" height="540" xmlns="http://www.w3.org/2000/svg" xmlns:xlink="http://www.w3.org/1999/xlink" version="1.1"><path d="M0 104L14.5 111.2C29 118.3 58 132.7 87.2 132.7C116.3 132.7 145.7 118.3 174.8 118.3C204 118.3 233 132.7 262 130.8C291 129 320 111 349 100.2C378 89.3 407 85.7 436.2 91C465.3 96.3 494.7 110.7 523.8 113.3C553 116 582 107 611 100.7C640 94.3 669 90.7 698 92.5C727 94.3 756 101.7 785.2 99C814.3 96.3 843.7 83.7 872.8 90.8C902 98 931 125 945.5 138.5L960 152L960 0L945.5 0C931 0 902 0 872.8 0C843.7 0 814.3 0 785.2 0C756 0 727 0 698 0C669 0 640 0 611 0C582 0 553 0 523.8 0C494.7 0 465.3 0 436.2 0C407 0 378 0 349 0C320 0 291 0 262 0C233 0 204 0 174.8 0C145.7 0 116.3 0 87.2 0C58 0 29 0 14.5 0L0 0Z" fill="#221275"></path><path d="M0 131L14.5 137.2C29 143.3 58 155.7 87.2 153.8C116.3 152 145.7 136 174.8 135.2C204 134.3 233 148.7 262 147.7C291 146.7 320 130.3 349 121.3C378 112.3 407 110.7 436.2 118.8C465.3 127 494.7 145 523.8 145.8C553 146.7 582 130.3 611 121.3C640 112.3 669 110.7 698 113.5C727 116.3 756 123.7 785.2 121.8C814.3 120 843.7 109 872.8 118C902 127 931 156 945.5 170.5L960 185L960 150L945.5 136.5C931 123 902 96 872.8 88.8C843.7 81.7 814.3 94.3 785.2 97C756 99.7 727 92.3 698 90.5C669 88.7 640 92.3 611 98.7C582 105 553 114 523.8 111.3C494.7 108.7 465.3 94.3 436.2 89C407 83.7 378 87.3 349 98.2C320 109 291 127 262 128.8C233 130.7 204 116.3 174.8 116.3C145.7 116.3 116.3 130.7 87.2 130.7C58 130.7 29 116.3 14.5 109.2L0 102Z" fill="#5a006d"></path><path d="M0 163L14.5 172C29 181 58 199 87.2 195.3C116.3 191.7 145.7 166.3 174.8 161.8C204 157.3 233 173.7 262 172.8C291 172 320 154 349 145C378 136 407 136 436.2 151.3C465.3 166.7 494.7 197.3 523.8 200C553 202.7 582 177.3 611 166.5C640 155.7 669 159.3 698 164.8C727 170.3 756 177.7 785.2 174C814.3 170.3 843.7 155.7 872.8 163.7C902 171.7 931 202.3 945.5 217.7L960 233L960 183L945.5 168.5C931 154 902 125 872.8 116C843.7 107 814.3 118 785.2 119.8C756 121.7 727 114.3 698 111.5C669 108.7 640 110.3 611 119.3C582 128.3 553 144.7 523.8 143.8C494.7 143 465.3 125 436.2 116.8C407 108.7 378 110.3 349 119.3C320 128.3 291 144.7 262 145.7C233 146.7 204 132.3 174.8 133.2C145.7 134 116.3 150 87.2 151.8C58 153.7 29 141.3 14.5 135.2L0 129Z" fill="#7d0061"></path><path d="M0 174L14.5 185.7C29 197.3 58 220.7 87.2 218.8C116.3 217 145.7 190 174.8 182.8C204 175.7 233 188.3 262 187.5C291 186.7 320 172.3 349 165.2C378 158 407 158 436.2 171.5C465.3 185 494.7 212 523.8 216.5C553 221 582 203 611 194C640 185 669 185 698 189.5C727 194 756 203 785.2 198.5C814.3 194 843.7 176 872.8 184C902 192 931 226 945.5 243L960 260L960 231L945.5 215.7C931 200.3 902 169.7 872.8 161.7C843.7 153.7 814.3 168.3 785.2 172C756 175.7 727 168.3 698 162.8C669 157.3 640 153.7 611 164.5C582 175.3 553 200.7 523.8 198C494.7 195.3 465.3 164.7 436.2 149.3C407 134 378 134 349 143C320 152 291 170 262 170.8C233 171.7 204 155.3 174.8 159.8C145.7 164.3 116.3 189.7 87.2 193.3C58 197 29 179 14.5 170L0 161Z" fill="#960053"></path><path d="M0 195L14.5 205.8C29 216.7 58 238.3 87.2 237.5C116.3 236.7 145.7 213.3 174.8 206.2C204 199 233 208 262 208C291 208 320 199 349 191.8C378 184.7 407 179.3 436.2 191C465.3 202.7 494.7 231.3 523.8 240.3C553 249.3 582 238.7 611 232.3C640 226 669 224 698 224.8C727 225.7 756 229.3 785.2 226.7C814.3 224 843.7 215 872.8 222.2C902 229.3 931 252.7 945.5 264.3L960 276L960 258L945.5 241C931 224 902 190 872.8 182C843.7 174 814.3 192 785.2 196.5C756 201 727 192 698 187.5C669 183 640 183 611 192C582 201 553 219 523.8 214.5C494.7 210 465.3 183 436.2 169.5C407 156 378 156 349 163.2C320 170.3 291 184.7 262 185.5C233 186.3 204 173.7 174.8 180.8C145.7 188 116.3 215 87.2 216.8C58 218.7 29 195.3 14.5 183.7L0 172Z" fill="#a70644"></path><path d="M0 266L14.5 268.7C29 271.3 58 276.7 87.2 269.3C116.3 262 145.7 242 174.8 245.5C204 249 233 276 262 281.5C291 287 320 271 349 254.8C378 238.7 407 222.3 436.2 230.3C465.3 238.3 494.7 270.7 523.8 284.2C553 297.7 582 292.3 611 284.3C640 276.3 669 265.7 698 267.5C727 269.3 756 283.7 785.2 286.3C814.3 289 843.7 280 872.8 281.8C902 283.7 931 296.3 945.5 302.7L960 309L960 274L945.5 262.3C931 250.7 902 227.3 872.8 220.2C843.7 213 814.3 222 785.2 224.7C756 227.3 727 223.7 698 222.8C669 222 640 224 611 230.3C582 236.7 553 247.3 523.8 238.3C494.7 229.3 465.3 200.7 436.2 189C407 177.3 378 182.7 349 189.8C320 197 291 206 262 206C233 206 204 197 174.8 204.2C145.7 211.3 116.3 234.7 87.2 235.5C58 236.3 29 214.7 14.5 203.8L0 193Z" fill="#b22d36"></path><path d="M0 347L14.5 347.8C29 348.7 58 350.3 87.2 362.8C116.3 375.3 145.7 398.7 174.8 411.3C204 424 233 426 262 419.7C291 413.3 320 398.7 349 387.8C378 377 407 370 436.2 369.2C465.3 368.3 494.7 373.7 523.8 381.7C553 389.7 582 400.3 611 396.7C640 393 669 375 698 373.3C727 371.7 756 386.3 785.2 398.2C814.3 410 843.7 419 872.8 419C902 419 931 410 945.5 405.5L960 401L960 307L945.5 300.7C931 294.3 902 281.7 872.8 279.8C843.7 278 814.3 287 785.2 284.3C756 281.7 727 267.3 698 265.5C669 263.7 640 274.3 611 282.3C582 290.3 553 295.7 523.8 282.2C494.7 268.7 465.3 236.3 436.2 228.3C407 220.3 378 236.7 349 252.8C320 269 291 285 262 279.5C233 274 204 247 174.8 243.5C145.7 240 116.3 260 87.2 267.3C58 274.7 29 269.3 14.5 266.7L0 264Z" fill="#b64929"></path><path d="M0 444L14.5 441.3C29 438.7 58 433.3 87.2 438.7C116.3 444 145.7 460 174.8 466.2C204 472.3 233 468.7 262 463.3C291 458 320 451 349 448.3C378 445.7 407 447.3 436.2 449.2C465.3 451 494.7 453 523.8 454C553 455 582 455 611 450.5C640 446 669 437 698 437.8C727 438.7 756 449.3 785.2 455.5C814.3 461.7 843.7 463.3 872.8 459.7C902 456 931 447 945.5 442.5L960 438L960 399L945.5 403.5C931 408 902 417 872.8 417C843.7 417 814.3 408 785.2 396.2C756 384.3 727 369.7 698 371.3C669 373 640 391 611 394.7C582 398.3 553 387.7 523.8 379.7C494.7 371.7 465.3 366.3 436.2 367.2C407 368 378 375 349 385.8C320 396.7 291 411.3 262 417.7C233 424 204 422 174.8 409.3C145.7 396.7 116.3 373.3 87.2 360.8C58 348.3 29 346.7 14.5 345.8L0 345Z" fill="#b6621f"></path><path d="M0 465L14.5 465C29 465 58 465 87.2 469.5C116.3 474 145.7 483 174.8 487.5C204 492 233 492 262 487.5C291 483 320 474 349 470.5C378 467 407 469 436.2 473.5C465.3 478 494.7 485 523.8 487.7C553 490.3 582 488.7 611 483.3C640 478 669 469 698 467.2C727 465.3 756 470.7 785.2 474.3C814.3 478 843.7 480 872.8 477.3C902 474.7 931 467.3 945.5 463.7L960 460L960 436L945.5 440.5C931 445 902 454 872.8 457.7C843.7 461.3 814.3 459.7 785.2 453.5C756 447.3 727 436.7 698 435.8C669 435 640 444 611 448.5C582 453 553 453 523.8 452C494.7 451 465.3 449 436.2 447.2C407 445.3 378 443.7 349 446.3C320 449 291 456 262 461.3C233 466.7 204 470.3 174.8 464.2C145.7 458 116.3 442 87.2 436.7C58 431.3 29 436.7 14.5 439.3L0 442Z" fill="#b17a1c"></path><path d="M0 492L14.5 493C29 494 58 496 87.2 500.5C116.3 505 145.7 512 174.8 513.8C204 515.7 233 512.3 262 508.8C291 505.3 320 501.7 349 498C378 494.3 407 490.7 436.2 494.2C465.3 497.7 494.7 508.3 523.8 511C553 513.7 582 508.3 611 503.8C640 499.3 669 495.7 698 495.7C727 495.7 756 499.3 785.2 502.2C814.3 505 843.7 507 872.8 504.3C902 501.7 931 494.3 945.5 490.7L960 487L960 458L945.5 461.7C931 465.3 902 472.7 872.8 475.3C843.7 478 814.3 476 785.2 472.3C756 468.7 727 463.3 698 465.2C669 467 640 476 611 481.3C582 486.7 553 488.3 523.8 485.7C494.7 483 465.3 476 436.2 471.5C407 467 378 465 349 468.5C320 472 291 481 262 485.5C233 490 204 490 174.8 485.5C145.7 481 116.3 472 87.2 467.5C58 463 29 463 14.5 463L0 463Z" fill="#a89027"></path><path d="M0 541L14.5 541C29 541 58 541 87.2 541C116.3 541 145.7 541 174.8 541C204 541 233 541 262 541C291 541 320 541 349 541C378 541 407 541 436.2 541C465.3 541 494.7 541 523.8 541C553 541 582 541 611 541C640 541 669 541 698 541C727 541 756 541 785.2 541C814.3 541 843.7 541 872.8 541C902 541 931 541 945.5 541L960 541L960 485L945.5 488.7C931 492.3 902 499.7 872.8 502.3C843.7 505 814.3 503 785.2 500.2C756 497.3 727 493.7 698 493.7C669 493.7 640 497.3 611 501.8C582 506.3 553 511.7 523.8 509C494.7 506.3 465.3 495.7 436.2 492.2C407 488.7 378 492.3 349 496C320 499.7 291 503.3 262 506.8C233 510.3 204 513.7 174.8 511.8C145.7 510 116.3 503 87.2 498.5C58 494 29 492 14.5 491L0 490Z" fill="#9ca53c"></path></svg>